<svg width="30" height="31" viewBox="0 0 30 31" fill="none" xmlns="http://www.w3.org/2000/svg">
<path d="M15 30.5C23.2843 30.5 30 23.7843 30 15.5C30 7.21572 23.2843 0.5 15 0.5C6.71573 0.5 0 7.21572 0 15.5C0 23.7843 6.71573 30.5 15 30.5Z" fill="url(#paint0_linear_469_11286)"/>
<path d="M20.2946 9.06689C19.6485 9.06689 19.1182 9.58763 19.1182 10.2434C19.1182 10.8991 19.6389 11.4198 20.2946 11.4198C20.9504 11.4198 21.4711 10.8991 21.4711 10.2434C21.4711 9.58763 20.9504 9.06689 20.2946 9.06689Z" fill="white"/>
<path d="M15.0859 10.5737C12.3665 10.5737 10.1582 12.782 10.1582 15.5014C10.1582 18.2208 12.3665 20.4291 15.0859 20.4291C17.8053 20.4291 20.0136 18.2208 20.0136 15.5014C20.0136 12.782 17.8053 10.5737 15.0859 10.5737ZM15.0859 18.6547C13.3501 18.6547 11.9326 17.2372 11.9326 15.5014C11.9326 13.7656 13.3501 12.3481 15.0859 12.3481C16.8217 12.3481 18.2392 13.7656 18.2392 15.5014C18.2392 17.2372 16.8217 18.6547 15.0859 18.6547Z" fill="white"/>
<path d="M18.9923 25.5H11.0077C7.69045 25.5 5 22.7999 5 19.4923V11.5077C5 8.19045 7.69045 5.5 11.0077 5.5H18.9923C22.3095 5.5 25 8.19045 25 11.5077V19.4923C25 22.8095 22.2999 25.5 18.9923 25.5ZM11.0077 7.38042C8.73192 7.38042 6.88042 9.23192 6.88042 11.5077V19.4923C6.88042 21.7681 8.73192 23.6196 11.0077 23.6196H18.9923C21.2681 23.6196 23.1196 21.7681 23.1196 19.4923V11.5077C23.1196 9.23192 21.2681 7.38042 18.9923 7.38042H11.0077Z" fill="white"/>
<defs>
<linearGradient id="paint0_linear_469_11286" x1="0.949689" y1="3.63737" x2="30.9412" y2="28.9652" gradientUnits="userSpaceOnUse">
<stop stop-color="#FBE18A"/>
<stop offset="0.21" stop-color="#FCBB45"/>
<stop offset="0.38" stop-color="#F75274"/>
<stop offset="0.52" stop-color="#D53692"/>
<stop offset="0.74" stop-color="#8F39CE"/>
<stop offset="1" stop-color="#5B4FE9"/>
</linearGradient>
</defs>
</svg>
